<svg width="117" height="68" viewBox="0 0 117 68" fill="none" xmlns="http://www.w3.org/2000/svg">
<rect width="117" height="68" fill="#333333" fill-opacity="0.2"/>
<g clip-path="url(#clip0_92_69)">
<path d="M100.333 10.8333H85.6666C84.6541 10.8333 83.8333 11.6542 83.8333 12.6667V16.3333C83.8333 17.3459 84.6541 18.1667 85.6666 18.1667H100.333C101.346 18.1667 102.167 17.3459 102.167 16.3333V12.6667C102.167 11.6542 101.346 10.8333 100.333 10.8333Z" stroke="#80FFD1" stroke-width="2" stroke-linecap="round" stroke-linejoin="round"/>
<path d="M100.333 21.8333H85.6666C84.6541 21.8333 83.8333 22.6542 83.8333 23.6667V27.3333C83.8333 28.3459 84.6541 29.1667 85.6666 29.1667H100.333C101.346 29.1667 102.167 28.3459 102.167 27.3333V23.6667C102.167 22.6542 101.346 21.8333 100.333 21.8333Z" stroke="#80FFD1" stroke-width="2" stroke-linecap="round" stroke-linejoin="round"/>
<path d="M87.5 14.5H87.51" stroke="#80FFD1" stroke-width="2" stroke-linecap="round" stroke-linejoin="round"/>
<path d="M87.5 25.5H87.51" stroke="#80FFD1" stroke-width="2" stroke-linecap="round" stroke-linejoin="round"/>
</g>
<path d="M35.4 46H30.175C30.058 46 29.72 44.873 29.149 42.625C27.167 35.716 26.025 31.679 25.732 30.505L29.102 27.18H29.201C29.655 28.6 31.755 34.856 35.5 45.948L35.4 46ZM25.342 29.084H25.294C25.2492 28.9227 25.2165 28.7582 25.196 28.592V28.494C26.2619 27.3779 27.3529 26.2859 28.468 25.219C28.598 25.415 28.664 25.575 28.664 25.71V25.76C27.5752 26.8864 26.4677 27.9946 25.342 29.084ZM18.994 32.9H18.944C19.614 30.78 20.02 29.691 20.167 29.625L27.492 22.343C27.572 22.343 27.75 22.867 28.025 23.905L18.994 32.9ZM20.364 28.886H20.314C21.813 24.342 22.612 22.048 22.71 22H27.205V22.05C24.9413 24.3462 22.6609 26.6259 20.364 28.889V28.886ZM17.674 36.76H17.624C17.79 35.962 18.178 35.342 18.798 34.905C20.6767 32.9748 22.5802 31.069 24.508 29.188H24.558C24.441 29.86 24.183 30.363 23.777 30.708L17.674 36.76ZM14.598 46L14.5 45.95C15.899 41.778 16.648 39.628 16.748 39.5L23.488 32.806V32.856C23.232 33.88 21.974 38.263 19.73 46H14.598Z" fill="#F40552"/>
<g clip-path="url(#clip1_92_69)">
<path d="M70.2007 33.1075L70.171 36.5358L73.5993 36.5654" stroke="#585858" stroke-width="2" stroke-linecap="round" stroke-linejoin="round"/>
<path d="M70.171 36.5358L77.0869 29.7386" stroke="#585858" stroke-width="2" stroke-linecap="round" stroke-linejoin="round"/>
<path d="M81.3054 37.4893L81.335 34.061L77.9068 34.0313" stroke="#585858" stroke-width="2" stroke-linecap="round" stroke-linejoin="round"/>
<path d="M81.335 34.061L74.4191 40.8582" stroke="#585858" stroke-width="2" stroke-linecap="round" stroke-linejoin="round"/>
</g>
<path d="M66.5 51.6667V43.4167C66.5 42.9304 66.3156 42.4641 65.9874 42.1203C65.6592 41.7765 65.2141 41.5833 64.75 41.5833H54.25C53.7859 41.5833 53.3407 41.7765 53.0126 42.1203C52.6844 42.4641 52.5 42.9304 52.5 43.4167V51.6667M66.5 51.6667H52.5M66.5 51.6667L67.62 54.0042C67.6874 54.1444 67.7194 54.3005 67.7127 54.4573C67.7061 54.6142 67.6611 54.7667 67.582 54.9001C67.503 55.0335 67.3925 55.1435 67.2613 55.2193C67.13 55.2952 66.9824 55.3344 66.8325 55.3333H52.1675C52.0176 55.3344 51.8699 55.2952 51.7387 55.2193C51.6074 55.1435 51.497 55.0335 51.4179 54.9001C51.3389 54.7667 51.2939 54.6142 51.2872 54.4573C51.2806 54.3005 51.3125 54.1444 51.38 54.0042L52.5 51.6667" stroke="#C17E3E" stroke-width="2" stroke-linecap="round" stroke-linejoin="round"/>
<defs>
<clipPath id="clip0_92_69">
<rect width="22" height="22" fill="white" transform="translate(82 9)"/>
</clipPath>
<clipPath id="clip1_92_69">
<rect width="14.5455" height="14.5455" fill="white" transform="translate(75.842 25.0136) rotate(45.496)"/>
</clipPath>
</defs>
</svg>
