<svg width="117" height="68" viewBox="0 0 117 68" fill="none" xmlns="http://www.w3.org/2000/svg">
<rect width="117" height="68" fill="#333333" fill-opacity="0.2"/>
<g clip-path="url(#clip0_92_35)">
<path d="M37.8346 33.7033L36.8273 33.0797C36.819 32.9817 36.8095 32.8839 36.799 32.7861L37.6646 31.9792C37.7073 31.9387 37.7391 31.888 37.7569 31.8319C37.7747 31.7758 37.778 31.7161 37.7665 31.6584C37.7549 31.6006 37.729 31.5468 37.691 31.5018C37.653 31.4568 37.6042 31.4222 37.5492 31.4012L36.4426 30.9872C36.4153 30.8915 36.3863 30.7963 36.3556 30.7016L37.046 29.7429C37.0807 29.695 37.1024 29.639 37.1093 29.5803C37.1162 29.5216 37.1079 29.4622 37.0853 29.4076C37.0626 29.353 37.0264 29.3051 36.98 29.2685C36.9337 29.2318 36.8787 29.2077 36.8203 29.1983L35.654 29.0089C35.6085 28.9208 35.5616 28.8333 35.5133 28.7467L36.0033 27.6706C36.028 27.6169 36.0385 27.5578 36.0337 27.499C36.0289 27.4401 36.009 27.3834 35.9759 27.3345C35.943 27.2855 35.8981 27.2456 35.8455 27.2187C35.793 27.1917 35.7344 27.1786 35.6753 27.1805L34.4908 27.2221C34.4301 27.1451 34.3676 27.0695 34.3035 26.9953L34.5758 25.8423C34.5893 25.7848 34.5879 25.7248 34.5717 25.668C34.5555 25.6112 34.5251 25.5595 34.4833 25.5178C34.4416 25.476 34.3899 25.4456 34.3331 25.4294C34.2763 25.4131 34.2163 25.4117 34.1588 25.4251L33.0056 25.6975C32.9304 25.6343 32.8544 25.5718 32.7778 25.5102L32.8193 24.3257C32.8222 24.2664 32.8096 24.2074 32.7829 24.1545C32.7562 24.1015 32.7163 24.0563 32.667 24.0233C32.6177 23.9903 32.5607 23.9706 32.5015 23.9661C32.4424 23.9616 32.3831 23.9725 32.3293 23.9977L31.2533 24.4887C31.1661 24.4411 31.0791 24.3935 30.991 24.348L30.8007 23.1807C30.7908 23.1226 30.7664 23.068 30.7297 23.022C30.6929 22.976 30.6451 22.94 30.5907 22.9174C30.5363 22.8949 30.4771 22.8865 30.4185 22.8931C30.36 22.8996 30.3041 22.921 30.256 22.955L29.2963 23.6455C29.2017 23.6152 29.1065 23.5865 29.0108 23.5595L28.5968 22.4529C28.5758 22.3979 28.5412 22.3491 28.4962 22.3111C28.4513 22.2731 28.3974 22.2471 28.3397 22.2356C28.2819 22.2241 28.2222 22.2274 28.1661 22.2452C28.1099 22.263 28.0593 22.2948 28.0187 22.3375L27.2118 23.2041C27.1141 23.1931 27.0163 23.1836 26.9182 23.1757L26.2946 22.1683C26.2636 22.1181 26.2203 22.0766 26.1687 22.0478C26.1172 22.019 26.0591 22.0039 26 22.0039C25.941 22.0039 25.8829 22.019 25.8314 22.0478C25.7798 22.0766 25.7365 22.1181 25.7054 22.1683L25.0818 23.1756C24.9839 23.184 24.886 23.1935 24.7882 23.204L23.9803 22.3374C23.9401 22.2941 23.8894 22.2619 23.8332 22.2438C23.777 22.2256 23.7171 22.2222 23.6591 22.2338C23.6012 22.2453 23.5472 22.2715 23.5022 22.3099C23.4573 22.3482 23.4229 22.3974 23.4023 22.4528L22.9882 23.5593C22.892 23.5867 22.7979 23.616 22.7027 23.6453L21.744 22.955C21.696 22.9209 21.6401 22.8996 21.5815 22.8931C21.523 22.8865 21.4637 22.8949 21.4093 22.9175C21.3549 22.94 21.3071 22.976 21.2704 23.0221C21.2337 23.0681 21.2092 23.1227 21.1993 23.1808L21.009 24.348C20.9209 24.3935 20.8335 24.4404 20.7468 24.4887L19.6706 23.9977C19.6169 23.9731 19.5577 23.9627 19.4988 23.9674C19.4399 23.9722 19.3831 23.9919 19.334 24.0248C19.2849 24.0577 19.245 24.1026 19.2182 24.1553C19.1913 24.208 19.1784 24.2666 19.1806 24.3257L19.2222 25.5102C19.1452 25.5712 19.0692 25.6337 18.9944 25.6975L17.8413 25.425C17.7838 25.4116 17.7239 25.413 17.6671 25.4292C17.6103 25.4454 17.5586 25.4758 17.5168 25.5176C17.4751 25.5593 17.4447 25.6111 17.4285 25.6678C17.4123 25.7246 17.4108 25.7846 17.4242 25.8421L17.6955 26.9952C17.6327 27.0702 17.57 27.1461 17.5092 27.222L16.3247 27.1805C16.2657 27.1782 16.207 27.1912 16.1543 27.218C16.1017 27.2449 16.0567 27.2847 16.0239 27.3339C15.991 27.383 15.9712 27.4397 15.9665 27.4987C15.9617 27.5576 15.9721 27.6167 15.9967 27.6705L16.4877 28.7466C16.4394 28.8332 16.3925 28.9206 16.347 29.0088L15.1808 29.1982C15.1228 29.2081 15.0682 29.2325 15.0222 29.2692C14.9761 29.306 14.9401 29.3538 14.9176 29.4082C14.895 29.4626 14.8866 29.5218 14.8932 29.5803C14.8997 29.6388 14.921 29.6947 14.955 29.7428L15.6454 30.7015C15.6154 30.7963 15.5864 30.8915 15.5584 30.987L14.4519 31.401C14.3969 31.422 14.3481 31.4566 14.3101 31.5016C14.2721 31.5465 14.2461 31.6004 14.2346 31.6582C14.2231 31.7159 14.2263 31.7756 14.2442 31.8318C14.262 31.8879 14.2937 31.9386 14.3364 31.9791L15.202 32.7861C15.1911 32.8838 15.1816 32.9816 15.1737 33.0796L14.1664 33.7032C14.1157 33.7338 14.0738 33.7771 14.0447 33.8287C14.0155 33.8803 14.0002 33.9385 14.0002 33.9978C14.0002 34.0571 14.0155 34.1153 14.0447 34.1669C14.0738 34.2185 14.1157 34.2618 14.1664 34.2924L15.1737 34.916C15.1817 35.0142 15.1919 35.1124 15.202 35.2096L14.3364 36.0175C14.2932 36.0578 14.261 36.1084 14.2428 36.1646C14.2247 36.2209 14.2213 36.2808 14.2328 36.3387C14.2444 36.3967 14.2706 36.4507 14.309 36.4956C14.3473 36.5406 14.3965 36.575 14.4519 36.5955L15.5584 37.0096C15.5857 37.1058 15.6151 37.201 15.6454 37.2951L14.955 38.2538C14.9201 38.3017 14.8981 38.3578 14.8911 38.4167C14.8841 38.4755 14.8924 38.5352 14.9152 38.5899C14.938 38.6447 14.9745 38.6926 15.0212 38.7291C15.0679 38.7657 15.1232 38.7896 15.1818 38.7985L16.348 38.9878C16.3936 39.0758 16.4402 39.1629 16.4888 39.25L15.9978 40.3262C15.9732 40.38 15.9628 40.4391 15.9676 40.498C15.9723 40.557 15.9921 40.6137 16.025 40.6628C16.0578 40.712 16.1028 40.7518 16.1554 40.7787C16.2081 40.8055 16.2668 40.8185 16.3258 40.8162L17.5092 40.7747C17.571 40.8516 17.6327 40.9275 17.6965 41.0024L17.4252 42.1565C17.4117 42.214 17.4131 42.2739 17.4293 42.3307C17.4455 42.3875 17.4759 42.4392 17.5177 42.4809C17.5595 42.5226 17.6113 42.5529 17.6681 42.569C17.7249 42.585 17.7849 42.5863 17.8423 42.5726L18.9953 42.3013C19.0703 42.3651 19.1463 42.4268 19.2232 42.4876L19.1817 43.6721C19.1791 43.7313 19.1918 43.7901 19.2185 43.843C19.2453 43.8958 19.2853 43.9409 19.3345 43.9738C19.3838 44.0067 19.4407 44.0263 19.4998 44.0307C19.5589 44.0351 19.6181 44.0243 19.6717 43.9991L20.7478 43.5091C20.8348 43.5577 20.9219 43.6042 21.01 43.6498L21.2003 44.816C21.2101 44.8742 21.2344 44.9289 21.2711 44.9751C21.3078 45.0212 21.3555 45.0574 21.41 45.08C21.4644 45.1027 21.5237 45.1112 21.5823 45.1046C21.6409 45.0981 21.6969 45.0769 21.745 45.0428L22.7037 44.3524C22.7984 44.3829 22.8936 44.4119 22.9892 44.4394L23.4032 45.546C23.4236 45.6016 23.4578 45.651 23.5028 45.6896C23.5477 45.7281 23.6018 45.7544 23.6599 45.766C23.7179 45.7776 23.778 45.7741 23.8343 45.7558C23.8906 45.7374 23.9412 45.7049 23.9813 45.6614L24.7892 44.7958C24.8864 44.8069 24.9846 44.8161 25.0828 44.8252L25.7064 45.8325C25.7376 45.8825 25.781 45.9238 25.8326 45.9524C25.8841 45.981 25.9421 45.996 26.001 45.996C26.06 45.996 26.118 45.981 26.1695 45.9524C26.221 45.9238 26.2645 45.8825 26.2956 45.8325L26.9192 44.8252C27.0174 44.8161 27.1156 44.8069 27.2128 44.7958L28.0197 45.6614C28.0603 45.7041 28.1109 45.7358 28.1671 45.7536C28.2232 45.7714 28.2829 45.7747 28.3406 45.7632C28.3983 45.7517 28.4522 45.7257 28.4971 45.6877C28.5421 45.6497 28.5767 45.601 28.5977 45.546L29.0118 44.4394C29.1075 44.4121 29.2027 44.3831 29.2973 44.3524L30.256 45.0428C30.3039 45.0777 30.36 45.0998 30.4189 45.1067C30.4778 45.1137 30.5375 45.1054 30.5922 45.0826C30.6469 45.0598 30.6949 45.0233 30.7314 44.9766C30.7679 44.9299 30.7918 44.8746 30.8007 44.816L30.991 43.6498C31.079 43.6042 31.1661 43.5567 31.2532 43.5091L32.3294 43.9991C32.3831 44.0234 32.4421 44.0336 32.5009 44.0287C32.5596 44.0239 32.6161 44.0042 32.6651 43.9715C32.7141 43.9388 32.754 43.8941 32.781 43.8418C32.808 43.7894 32.8212 43.731 32.8194 43.6721L32.7779 42.4876C32.8549 42.4272 32.9304 42.365 33.0046 42.3013L34.1577 42.5726C34.2151 42.586 34.275 42.5845 34.3316 42.5683C34.3883 42.5522 34.4399 42.5219 34.4817 42.4803C34.5234 42.4387 34.5538 42.3871 34.5701 42.3305C34.5864 42.2739 34.5881 42.214 34.5748 42.1566L34.3035 41.0024C34.3663 40.9275 34.429 40.8516 34.4898 40.7746L35.6743 40.8161C35.7336 40.8189 35.7926 40.8064 35.8456 40.7797C35.8986 40.753 35.9438 40.7131 35.9768 40.6638C36.0098 40.6145 36.0295 40.5575 36.0339 40.4983C36.0384 40.4391 36.0275 40.3798 36.0023 40.3261L35.5123 39.2501C35.5598 39.1629 35.6074 39.0759 35.653 38.9878L36.8192 38.7985C36.8773 38.7886 36.9319 38.7642 36.978 38.7275C37.024 38.6907 37.06 38.6429 37.0826 38.5885C37.1051 38.5341 37.1135 38.4749 37.107 38.4163C37.1004 38.3578 37.0791 38.3019 37.045 38.2538L36.3546 37.2951L36.4416 37.0096L37.5482 36.5956C37.6037 36.5751 37.6529 36.5407 37.6912 36.4957C37.7296 36.4507 37.7558 36.3967 37.7674 36.3388C37.7789 36.2808 37.7755 36.2209 37.7573 36.1646C37.7392 36.1084 37.7069 36.0577 37.6636 36.0175L36.798 35.2096C36.8081 35.1124 36.8182 35.0142 36.8263 34.916L37.8336 34.2924C37.8844 34.2618 37.9263 34.2185 37.9554 34.1669C37.9845 34.1153 37.9998 34.0571 37.9998 33.9978C37.9998 33.9385 37.9845 33.8803 37.9554 33.8287C37.9263 33.7771 37.8844 33.7338 37.8336 33.7032L37.8346 33.7033ZM31.0933 42.0584C30.9091 42.0179 30.7484 41.9062 30.6463 41.7476C30.5442 41.5889 30.5091 41.3964 30.5485 41.2119C30.588 41.0275 30.6988 40.8661 30.8569 40.7632C31.0149 40.6602 31.2073 40.624 31.3919 40.6624C31.4849 40.6808 31.5733 40.7174 31.6519 40.7703C31.7305 40.8232 31.7978 40.8912 31.8499 40.9703C31.902 41.0494 31.9379 41.1382 31.9553 41.2313C31.9728 41.3244 31.9715 41.4201 31.9516 41.5127C31.9317 41.6054 31.8936 41.6931 31.8395 41.7709C31.7853 41.8486 31.7162 41.9148 31.6363 41.9656C31.5563 42.0164 31.467 42.0508 31.3736 42.0667C31.2802 42.0826 31.1845 42.0798 31.0922 42.0584H31.0933ZM30.7511 39.7442C30.6676 39.7262 30.5814 39.7249 30.4974 39.7403C30.4134 39.7557 30.3333 39.7876 30.2616 39.834C30.1899 39.8805 30.1281 39.9406 30.0797 40.011C30.0314 40.0814 29.9973 40.1606 29.9796 40.2442L29.6223 41.9127C28.5188 42.4137 27.2938 42.6922 26.003 42.6922C24.7267 42.694 23.4654 42.4162 22.3079 41.8782L21.9505 40.2098C21.9329 40.1263 21.8988 40.0471 21.8504 39.9767C21.8021 39.9064 21.7402 39.8463 21.6686 39.8C21.5969 39.7536 21.5167 39.7218 21.4327 39.7065C21.3488 39.6912 21.2626 39.6927 21.1791 39.7108L19.7061 40.0266C19.4324 39.7448 19.1781 39.4447 18.9448 39.1286H26.1124C26.1934 39.1286 26.248 39.1145 26.248 39.0406V36.5046C26.248 36.4306 26.1944 36.4165 26.1124 36.4165H24.0158V34.8088H26.2835C26.49 34.8088 27.39 34.8675 27.6775 36.0176C27.7676 36.3709 27.965 37.522 28.1007 37.8905C28.2353 38.3035 28.784 39.1286 29.3692 39.1286H32.9408C32.9843 39.128 33.0277 39.1236 33.0704 39.1155C32.8228 39.4519 32.5515 39.7703 32.2585 40.0681L30.7511 39.7442ZM20.8369 42.024C20.7446 42.0454 20.649 42.0482 20.5556 42.0323C20.4622 42.0164 20.3729 41.982 20.2929 41.9312C20.2129 41.8804 20.1439 41.8142 20.0897 41.7365C20.0356 41.6587 19.9974 41.571 19.9776 41.4783C19.9577 41.3857 19.9564 41.29 19.9739 41.1969C19.9913 41.1038 20.0272 41.015 20.0792 40.9359C20.1313 40.8568 20.1987 40.7888 20.2773 40.7359C20.3559 40.683 20.4443 40.6464 20.5372 40.628C20.721 40.5917 20.9117 40.6291 21.0682 40.7321C21.2247 40.835 21.3344 40.9954 21.3737 41.1786C21.4131 41.3617 21.3788 41.553 21.2784 41.7112C21.178 41.8693 21.0194 41.9817 20.8369 42.024ZM18.1177 30.9972C18.159 31.0833 18.1825 31.1768 18.187 31.2721C18.1915 31.3675 18.1768 31.4628 18.1438 31.5523C18.1108 31.6419 18.0601 31.7239 17.9949 31.7936C17.9296 31.8633 17.851 31.9191 17.7638 31.9578C17.6765 31.9966 17.5824 32.0174 17.487 32.0192C17.3915 32.0209 17.2967 32.0034 17.2081 31.9679C17.1195 31.9323 17.039 31.8793 16.9713 31.812C16.9035 31.7448 16.85 31.6646 16.8137 31.5763C16.7435 31.4045 16.743 31.2121 16.8122 31.0399C16.8815 30.8677 17.0151 30.7293 17.1848 30.654C17.3544 30.5787 17.5467 30.5724 17.7209 30.6365C17.895 30.7006 18.0374 30.8299 18.1177 30.9972ZM17.2825 32.9785L18.8172 32.2961C18.8953 32.2614 18.9658 32.2117 19.0246 32.1498C19.0835 32.0879 19.1295 32.015 19.1602 31.9352C19.1908 31.8555 19.2055 31.7705 19.2032 31.6851C19.201 31.5997 19.182 31.5156 19.1472 31.4376L18.8314 30.7229H20.0746V36.3254H17.5669C17.2577 35.2381 17.1615 34.1012 17.2835 32.9774L17.2825 32.9785ZM24.0168 32.4348V30.7836H26.9769C27.1299 30.7836 28.0561 30.9608 28.0561 31.6533C28.0561 32.2283 27.3454 32.4348 26.7613 32.4348H24.0168ZM34.7742 33.921C34.7742 34.1397 34.7662 34.3573 34.7499 34.572H33.8499C33.7599 34.572 33.7234 34.6306 33.7234 34.7197V35.1327C33.7234 36.1057 33.1747 36.3173 32.6938 36.3709C32.2362 36.4226 31.729 36.1796 31.6663 35.8992C31.3959 34.3806 30.9465 34.0556 30.2358 33.4958C31.1175 32.9359 32.0348 32.1098 32.0348 31.0043C32.0348 29.8107 31.2158 29.0585 30.6579 28.689C29.8754 28.1727 29.0088 28.0695 28.7749 28.0695H19.4682C20.7545 26.6313 22.4793 25.6576 24.3752 25.2996L25.4726 26.4506C25.5314 26.5125 25.6019 26.5621 25.6799 26.5967C25.7579 26.6312 25.842 26.65 25.9273 26.652C26.0126 26.654 26.0975 26.6391 26.177 26.6082C26.2566 26.5773 26.3292 26.531 26.3908 26.4719L27.6178 25.2976C28.8689 25.5322 30.054 26.0362 31.0908 26.7746C32.1277 27.5131 32.9914 28.4682 33.6222 29.5738L32.7819 31.472C32.7123 31.6297 32.7079 31.8085 32.7698 31.9693C32.8316 32.1302 32.9546 32.2601 33.1119 32.3305L34.7297 33.0493C34.758 33.3368 34.7722 33.6263 34.7722 33.921H34.7742ZM25.4736 24.3217C25.6104 24.1912 25.7935 24.1204 25.9825 24.1249C26.0761 24.1271 26.1683 24.1477 26.2539 24.1856C26.3395 24.2234 26.4168 24.2778 26.4814 24.3455C26.5461 24.4132 26.5967 24.493 26.6305 24.5803C26.6642 24.6676 26.6805 24.7607 26.6783 24.8543C26.6761 24.9479 26.6554 25.0401 26.6176 25.1258C26.5797 25.2114 26.5254 25.2887 26.4576 25.3533C26.319 25.473 26.1397 25.5348 25.9567 25.5259C25.7738 25.5171 25.6012 25.4382 25.4748 25.3057C25.3484 25.1731 25.2778 24.9971 25.2776 24.8139C25.2773 24.6308 25.3475 24.4545 25.4736 24.3217ZM33.8125 31.0317C33.8503 30.9461 33.9046 30.8688 33.9723 30.8042C34.0399 30.7396 34.1197 30.689 34.207 30.6553C34.2943 30.6217 34.3874 30.6056 34.4809 30.6079C34.5744 30.6103 34.6666 30.6311 34.752 30.6692C34.8812 30.7262 34.9906 30.8203 35.0663 30.9395C35.1421 31.0587 35.1807 31.1977 35.1774 31.3388C35.1741 31.48 35.129 31.617 35.0478 31.7326C34.9666 31.8481 34.8529 31.9369 34.7212 31.9879C34.5895 32.0388 34.4456 32.0495 34.3078 32.0186C34.17 31.9877 34.0445 31.9166 33.9471 31.8144C33.8497 31.7121 33.7848 31.5832 33.7607 31.4441C33.7366 31.305 33.7543 31.1618 33.8115 31.0327L33.8125 31.0317Z" fill="#F04900"/>
</g>
<g clip-path="url(#clip1_92_35)">
<path d="M79.846 22C79.6034 21.9993 79.3631 22.0466 79.1388 22.1392C78.9145 22.2317 78.7108 22.3677 78.5392 22.5392C78.3677 22.7108 78.2317 22.9145 78.1392 23.1388C78.0466 23.3631 77.9993 23.6034 78 23.846V42.309C78 43.331 78.823 44.154 79.846 44.154H100.154C100.396 44.1547 100.637 44.1074 100.861 44.015C101.085 43.9226 101.289 43.7868 101.46 43.6155C101.632 43.4442 101.768 43.2406 101.86 43.0166C101.953 42.7926 102 42.5524 102 42.31V23.846C102.001 23.6034 101.953 23.3631 101.861 23.1388C101.768 22.9145 101.632 22.7108 101.461 22.5392C101.289 22.3677 101.085 22.2317 100.861 22.1392C100.637 22.0466 100.397 21.9993 100.154 22H79.846ZM79.846 22.924H100.154C100.666 22.924 101.076 23.334 101.076 23.846V42.309C101.076 42.82 100.666 43.23 100.154 43.23H79.846C79.7249 43.2304 79.6049 43.2069 79.4929 43.1607C79.381 43.1146 79.2792 43.0468 79.1935 42.9612C79.1078 42.8756 79.0399 42.7739 78.9937 42.662C78.9474 42.5501 78.9237 42.4301 78.924 42.309V23.846C78.924 23.334 79.334 22.924 79.846 22.924ZM79.846 23.846V42.309H100.154V23.846H79.846ZM81.691 25.986L84.926 27.744V28.58L81.69 30.477V29.385L83.933 28.178V28.145L81.69 27.076L81.691 25.986ZM85.846 31.23H89.539V32.154H85.846V31.23ZM78 43.736V44.154C78 45.177 78.823 46 79.846 46H100.154C100.397 46.0007 100.637 45.9534 100.861 45.8608C101.085 45.7683 101.289 45.6323 101.461 45.4608C101.632 45.2892 101.768 45.0855 101.861 44.8612C101.953 44.637 102.001 44.3966 102 44.154V43.736C101.783 44.0202 101.504 44.2507 101.184 44.4099C100.864 44.569 100.511 44.6526 100.154 44.654H79.846C79.4886 44.6526 79.1362 44.569 78.8162 44.4099C78.4961 44.2507 78.2169 44.0202 78 43.736Z" fill="white"/>
</g>
<path d="M65 43C65.5304 43 66.0391 42.7893 66.4142 42.4142C66.7893 42.0391 67 41.5304 67 41V31C67 30.4696 66.7893 29.9609 66.4142 29.5858C66.0391 29.2107 65.5304 29 65 29H57.1C56.7655 29.0033 56.4355 28.9226 56.1403 28.7654C55.8451 28.6081 55.594 28.3794 55.41 28.1L54.6 26.9C54.4179 26.6235 54.17 26.3965 53.8785 26.2394C53.587 26.0823 53.2611 26.0001 52.93 26H49C48.4696 26 47.9609 26.2107 47.5858 26.5858C47.2107 26.9609 47 27.4696 47 28V41C47 41.5304 47.2107 42.0391 47.5858 42.4142C47.9609 42.7893 48.4696 43 49 43H65Z" stroke="#828282" stroke-width="2" stroke-linecap="round" stroke-linejoin="round"/>
<line x1="39.5" y1="33.5" x2="43.5" y2="33.5" stroke="white" stroke-linecap="round"/>
<path d="M71.5 33.5H75.5" stroke="white" stroke-linecap="round"/>
<defs>
<clipPath id="clip0_92_35">
<rect width="24" height="24" fill="white" transform="translate(14 22)"/>
</clipPath>
<clipPath id="clip1_92_35">
<rect width="24" height="24" fill="white" transform="translate(78 22)"/>
</clipPath>
</defs>
</svg>
