<svg width="117" height="68" viewBox="0 0 117 68" fill="none" xmlns="http://www.w3.org/2000/svg">
<rect width="117" height="68" fill="#333333" fill-opacity="0.2"/>
<g clip-path="url(#clip0_110_5)">
<path d="M38.1694 39.6475C38.1694 39.6475 37.0932 40.302 38.9175 40.4892C41.1138 40.7692 42.2837 40.7229 44.7144 40.2556C45.203 40.5548 45.7196 40.8053 46.257 41.0037C40.7883 43.3417 33.8679 40.8637 38.1694 39.6475ZM37.4694 36.6086C37.4694 36.6086 36.3004 37.4967 38.1239 37.6849C40.5083 37.9185 42.3782 37.9649 45.6052 37.3112C45.919 37.6295 46.3033 37.8696 46.7269 38.0121C40.1347 39.9756 32.7479 38.1985 37.4694 36.6086ZM50.373 41.9374C50.373 41.9374 51.1675 42.5919 49.4849 43.1064C46.3524 44.0426 36.3477 44.3226 33.5424 43.1064C32.5607 42.6864 34.4305 42.0782 35.0299 41.9846C35.638 41.8446 35.9662 41.8446 35.9662 41.8446C34.8899 41.0965 28.813 43.3872 32.8809 44.0409C44.0547 45.8644 53.2649 43.2464 50.366 41.9374H50.373ZM38.6752 33.4289C38.6752 33.4289 33.5792 34.6451 36.8517 35.0651C38.2543 35.2524 41.0123 35.2051 43.5839 35.0187C45.6874 34.8315 47.7927 34.4587 47.7927 34.4587C47.7927 34.4587 47.0445 34.786 46.53 35.1132C41.3413 36.4695 31.382 35.8614 34.2345 34.4587C36.6653 33.2897 38.676 33.4306 38.676 33.4306L38.6752 33.4289ZM47.7927 38.5249C53.0287 35.8124 50.5979 33.1961 48.9144 33.5225C48.4944 33.6161 48.3063 33.7097 48.3063 33.7097C48.3063 33.7097 48.4463 33.4297 48.7735 33.3361C52.0933 32.1671 54.7113 36.8422 47.6973 38.6649C47.6973 38.6649 47.7437 38.6185 47.7909 38.5249H47.7927ZM39.1914 45.9116C44.2402 46.2389 51.955 45.7244 52.1414 43.3391C52.1414 43.3391 51.7678 44.2754 47.9808 44.9754C43.6793 45.7699 38.3497 45.6754 35.2172 45.1626C35.2172 45.1626 35.8717 45.7235 39.1914 45.9116Z" fill="#4E7896"/>
<path d="M44.6215 18.0009C44.6215 18.0009 47.5203 20.9461 41.8635 25.3876C37.3283 28.9874 40.8353 31.0445 41.8635 33.3825C39.1982 30.9981 37.282 28.8937 38.591 26.9311C40.5072 24.0314 45.7905 22.6375 44.6215 18.0009ZM43.134 31.419C44.4902 32.9616 42.7603 34.3642 42.7603 34.3642C42.7603 34.3642 46.2201 32.588 44.6302 30.39C43.1812 28.2865 42.0577 27.2575 48.1363 23.7514C48.1363 23.7514 38.5525 26.1357 43.134 31.419Z" fill="#F58219"/>
</g>
<path d="M69 41C64.49 43 64 39 62 39" stroke="white" stroke-width="2" stroke-linecap="round" stroke-linejoin="round"/>
<path d="M74.9998 45V41C75.1389 39.7473 74.7797 38.4901 73.9998 37.5C76.9998 37.5 79.9998 35.5 79.9998 32C80.0798 30.75 79.7298 29.52 78.9998 28.5C79.2798 27.35 79.2798 26.15 78.9998 25C78.9998 25 77.9998 25 75.9998 26.5C73.3598 26 70.6398 26 67.9998 26.5C65.9998 25 64.9998 25 64.9998 25C64.6998 26.15 64.6998 27.35 64.9998 28.5C64.2717 29.5159 63.9183 30.7528 63.9998 32C63.9998 35.5 66.9998 37.5 69.9998 37.5C69.6098 37.99 69.3198 38.55 69.1498 39.15C68.9798 39.75 68.9298 40.38 68.9998 41V45" stroke="white" stroke-width="2" stroke-linecap="round" stroke-linejoin="round"/>
<path d="M26 27H25C24.4696 27 23.9609 27.2107 23.5858 27.5858C23.2107 27.9609 23 28.4696 23 29V34C23 34.5304 22.7893 35.0391 22.4142 35.4142C22.0391 35.7893 21.5304 36 21 36C21.5304 36 22.0391 36.2107 22.4142 36.5858C22.7893 36.9609 23 37.4696 23 38V43C23 44.1 23.9 45 25 45H26" stroke="#D86767" stroke-width="2" stroke-linecap="round" stroke-linejoin="round"/>
<path d="M87 45H88C88.5304 45 89.0391 44.7893 89.4142 44.4142C89.7893 44.0391 90 43.5304 90 43V38C90 36.9 90.9 36 92 36C91.4696 36 90.9609 35.7893 90.5858 35.4142C90.2107 35.0391 90 34.5304 90 34V29C90 28.4696 89.7893 27.9609 89.4142 27.5858C89.0391 27.2107 88.5304 27 88 27H87" stroke="#D86767" stroke-width="2" stroke-linecap="round" stroke-linejoin="round"/>
<defs>
<clipPath id="clip0_110_5">
<rect width="28" height="28" fill="white" transform="translate(28 18)"/>
</clipPath>
</defs>
</svg>
