<svg width="117" height="68" viewBox="0 0 117 68" fill="none" xmlns="http://www.w3.org/2000/svg">
<rect width="117" height="68" fill="#333333" fill-opacity="0.2"/>
<path d="M34.511 40.508C34.727 43.281 34.727 44.581 34.727 46H28.31C28.31 45.691 28.316 45.408 28.321 45.122C28.339 44.23 28.357 43.301 28.212 41.424C28.022 38.677 26.838 38.066 24.662 38.066H14.574V33.066H24.97C27.718 33.066 29.092 32.231 29.092 30.017C29.092 28.071 27.718 26.892 24.97 26.892H14.573V22H26.114C32.335 22 35.427 24.938 35.427 29.632C35.427 33.143 33.251 35.432 30.313 35.814C32.793 36.311 34.243 37.723 34.511 40.508ZM14.573 46V42.273H21.357C22.49 42.273 22.736 43.113 22.736 43.615V46H14.573Z" fill="white"/>
<path d="M61.23 34.004C61.23 34.5968 60.9946 35.1654 60.5754 35.5847C60.1563 36.004 59.5879 36.2397 58.995 36.24C58.402 36.24 57.8332 36.0044 57.4139 35.5851C56.9946 35.1658 56.759 34.597 56.759 34.004C56.759 33.4111 56.9944 32.8426 57.4136 32.4233C57.8327 32.004 58.4011 31.7683 58.994 31.768C59.587 31.768 60.1558 32.0036 60.5751 32.4229C60.9944 32.8422 61.23 33.411 61.23 34.004ZM63.878 23.314C62.532 23.314 60.771 24.274 58.99 25.936C57.21 24.283 55.448 23.334 54.103 23.334C53.693 23.334 53.32 23.427 52.997 23.612C51.622 24.405 51.314 26.876 52.024 29.977C48.98 30.917 47 32.42 47 34.004C47 35.594 48.99 37.101 52.043 38.034C51.339 41.147 51.653 43.622 53.031 44.414C53.351 44.601 53.721 44.689 54.133 44.689C55.478 44.689 57.24 43.729 59.021 42.065C60.801 43.719 62.563 44.668 63.908 44.668C64.318 44.668 64.691 44.578 65.014 44.393C66.388 43.601 66.697 41.13 65.987 38.028C69.02 37.096 71 35.59 71 34.004C71 32.414 69.01 30.907 65.957 29.972C66.661 26.862 66.347 24.385 64.969 23.592C64.651 23.408 64.282 23.315 63.878 23.314ZM63.873 24.404V24.41C64.098 24.41 64.279 24.454 64.431 24.537C65.097 24.919 65.386 26.372 65.161 28.241C65.107 28.701 65.019 29.186 64.911 29.681C63.951 29.445 62.905 29.264 61.804 29.147C61.144 28.242 60.459 27.42 59.769 26.7C61.361 25.22 62.856 24.408 63.874 24.405L63.873 24.404ZM54.103 24.424C55.115 24.424 56.617 25.232 58.213 26.704C57.527 27.424 56.843 28.241 56.193 29.146C55.086 29.263 54.039 29.444 53.08 29.684C52.968 29.194 52.885 28.72 52.826 28.264C52.596 26.396 52.88 24.944 53.54 24.557C53.73 24.467 53.94 24.429 54.103 24.424ZM58.985 27.474C59.44 27.942 59.895 28.466 60.345 29.038C59.905 29.018 59.455 29.004 59 29.004C58.54 29.004 58.085 29.014 57.64 29.038C58.08 28.466 58.535 27.943 58.985 27.474ZM59 30.1C59.74 30.1 60.477 30.134 61.202 30.193C61.608 30.775 62.004 31.396 62.385 32.053C62.757 32.693 63.095 33.343 63.403 33.999C63.095 34.654 62.757 35.309 62.39 35.949C62.01 36.609 61.617 37.237 61.21 37.819C60.482 37.882 59.744 37.917 59 37.917C58.26 37.917 57.523 37.882 56.798 37.824C56.392 37.242 55.996 36.62 55.615 35.964C55.243 35.324 54.905 34.674 54.597 34.018C54.9 33.361 55.243 32.705 55.61 32.064C55.99 31.404 56.383 30.778 56.79 30.196C57.518 30.132 58.256 30.098 59 30.098V30.1ZM55.365 30.354C55.125 30.731 54.885 31.117 54.661 31.514C54.436 31.904 54.226 32.296 54.026 32.688C53.761 32.032 53.536 31.378 53.35 30.741C53.99 30.591 54.665 30.457 55.365 30.354ZM62.625 30.354C63.32 30.457 63.99 30.584 64.631 30.741C64.451 31.373 64.226 32.023 63.971 32.674C63.771 32.284 63.561 31.891 63.331 31.5C63.106 31.108 62.866 30.726 62.626 30.354H62.625ZM65.688 31.029C66.172 31.179 66.632 31.346 67.063 31.527C68.795 32.267 69.915 33.235 69.915 34.003C69.91 34.771 68.79 35.743 67.058 36.478C66.638 36.658 66.178 36.82 65.703 36.971C65.423 36.013 65.057 35.015 64.603 33.991C65.053 32.974 65.413 31.981 65.688 31.027V31.029ZM52.293 31.033C52.571 31.993 52.938 32.99 53.393 34.013C52.943 35.03 52.581 36.023 52.307 36.977C51.823 36.827 51.363 36.659 50.937 36.477C49.205 35.74 48.085 34.771 48.085 34.003C48.085 33.235 49.205 32.261 50.937 31.527C51.357 31.347 51.817 31.185 52.293 31.033ZM63.971 35.313C64.236 35.97 64.461 36.625 64.647 37.261C64.007 37.418 63.331 37.551 62.631 37.651C62.871 37.276 63.111 36.889 63.336 36.493C63.561 36.103 63.77 35.705 63.971 35.313ZM54.026 35.333C54.226 35.725 54.436 36.116 54.666 36.508C54.896 36.898 55.131 37.28 55.371 37.651C54.676 37.549 54.006 37.421 53.365 37.265C53.545 36.635 53.771 35.983 54.025 35.332L54.026 35.333ZM64.92 38.32C65.032 38.813 65.12 39.288 65.174 39.743C65.404 41.611 65.12 43.063 64.46 43.451C64.313 43.541 64.122 43.579 63.897 43.579C62.885 43.579 61.383 42.772 59.787 41.299C60.473 40.579 61.157 39.763 61.807 38.859C62.914 38.741 63.961 38.56 64.92 38.32ZM53.09 38.33C54.05 38.564 55.096 38.745 56.197 38.862C56.857 39.767 57.542 40.589 58.232 41.308C56.637 42.791 55.14 43.603 54.122 43.603C53.902 43.598 53.716 43.553 53.569 43.471C52.903 43.091 52.614 41.637 52.839 39.768C52.893 39.308 52.982 38.824 53.09 38.33ZM57.65 38.97C58.09 38.99 58.54 39.004 58.995 39.004C59.455 39.004 59.91 38.994 60.355 38.97C59.915 39.542 59.46 40.065 59.01 40.535C58.555 40.065 58.1 39.542 57.65 38.97Z" fill="#61DAFB"/>
<g clip-path="url(#clip0_92_116)">
<path d="M93.001 26.8C89.801 26.8 87.801 28.4 87.001 31.6C88.201 30 89.601 29.4 91.201 29.8C92.114 30.028 92.766 30.69 93.489 31.424C94.666 32.618 96.027 34 99.001 34C102.201 34 104.201 32.4 105.001 29.2C103.801 30.8 102.401 31.4 100.801 31C99.888 30.772 99.236 30.11 98.513 29.376C97.337 28.182 95.976 26.8 93.001 26.8ZM87.001 34C83.801 34 81.801 35.6 81.001 38.8C82.201 37.2 83.601 36.6 85.201 37C86.114 37.228 86.766 37.89 87.489 38.624C88.666 39.818 90.027 41.2 93.001 41.2C96.201 41.2 98.201 39.6 99.001 36.4C97.801 38 96.401 38.6 94.801 38.2C93.888 37.972 93.236 37.31 92.513 36.576C91.337 35.382 89.976 34 87.001 34Z" fill="#06B6D4"/>
</g>
<defs>
<clipPath id="clip0_92_116">
<rect width="24" height="24" fill="white" transform="translate(81 22)"/>
</clipPath>
</defs>
</svg>
