<svg width="117" height="68" viewBox="0 0 117 68" fill="none" xmlns="http://www.w3.org/2000/svg">
<rect width="117" height="68" fill="#333333" fill-opacity="0.2"/>
<g clip-path="url(#clip0_92_40)">
<path d="M36.8346 33.7033L35.8273 33.0797C35.819 32.9817 35.8095 32.8839 35.799 32.7861L36.6646 31.9792C36.7073 31.9387 36.7391 31.888 36.7569 31.8319C36.7747 31.7758 36.778 31.7161 36.7665 31.6584C36.7549 31.6006 36.729 31.5468 36.691 31.5018C36.653 31.4568 36.6042 31.4222 36.5492 31.4012L35.4426 30.9872C35.4153 30.8915 35.3863 30.7963 35.3556 30.7016L36.046 29.7429C36.0807 29.695 36.1024 29.639 36.1093 29.5803C36.1162 29.5216 36.1079 29.4622 36.0853 29.4076C36.0626 29.353 36.0264 29.3051 35.98 29.2685C35.9337 29.2318 35.8787 29.2077 35.8203 29.1983L34.654 29.0089C34.6085 28.9208 34.5616 28.8333 34.5133 28.7467L35.0033 27.6706C35.028 27.6169 35.0385 27.5578 35.0337 27.499C35.0289 27.4401 35.009 27.3834 34.9759 27.3345C34.943 27.2855 34.8981 27.2456 34.8455 27.2187C34.793 27.1917 34.7344 27.1786 34.6753 27.1805L33.4908 27.2221C33.4301 27.1451 33.3676 27.0695 33.3035 26.9953L33.5758 25.8423C33.5893 25.7848 33.5879 25.7248 33.5717 25.668C33.5555 25.6112 33.5251 25.5595 33.4833 25.5178C33.4416 25.476 33.3899 25.4456 33.3331 25.4294C33.2763 25.4131 33.2163 25.4117 33.1588 25.4251L32.0056 25.6975C31.9304 25.6343 31.8544 25.5718 31.7778 25.5102L31.8193 24.3257C31.8222 24.2664 31.8096 24.2074 31.7829 24.1545C31.7562 24.1015 31.7163 24.0563 31.667 24.0233C31.6177 23.9903 31.5607 23.9706 31.5015 23.9661C31.4424 23.9616 31.3831 23.9725 31.3293 23.9977L30.2533 24.4887C30.1661 24.4411 30.0791 24.3935 29.991 24.348L29.8007 23.1807C29.7908 23.1226 29.7664 23.068 29.7297 23.022C29.6929 22.976 29.6451 22.94 29.5907 22.9174C29.5363 22.8949 29.4771 22.8865 29.4185 22.8931C29.36 22.8996 29.3041 22.921 29.256 22.955L28.2963 23.6455C28.2017 23.6152 28.1065 23.5865 28.0108 23.5595L27.5968 22.4529C27.5758 22.3979 27.5412 22.3491 27.4962 22.3111C27.4513 22.2731 27.3974 22.2471 27.3397 22.2356C27.2819 22.2241 27.2222 22.2274 27.1661 22.2452C27.1099 22.263 27.0593 22.2948 27.0187 22.3375L26.2118 23.2041C26.1141 23.1931 26.0163 23.1836 25.9182 23.1757L25.2946 22.1683C25.2636 22.1181 25.2203 22.0766 25.1687 22.0478C25.1172 22.019 25.0591 22.0039 25 22.0039C24.941 22.0039 24.8829 22.019 24.8314 22.0478C24.7798 22.0766 24.7365 22.1181 24.7054 22.1683L24.0818 23.1756C23.9839 23.184 23.886 23.1935 23.7882 23.204L22.9803 22.3374C22.9401 22.2941 22.8894 22.2619 22.8332 22.2438C22.777 22.2256 22.7171 22.2222 22.6591 22.2338C22.6012 22.2453 22.5472 22.2715 22.5022 22.3099C22.4573 22.3482 22.4229 22.3974 22.4023 22.4528L21.9882 23.5593C21.892 23.5867 21.7979 23.616 21.7027 23.6453L20.744 22.955C20.696 22.9209 20.6401 22.8996 20.5815 22.8931C20.523 22.8865 20.4637 22.8949 20.4093 22.9175C20.3549 22.94 20.3071 22.976 20.2704 23.0221C20.2337 23.0681 20.2092 23.1227 20.1993 23.1808L20.009 24.348C19.9209 24.3935 19.8335 24.4404 19.7468 24.4887L18.6706 23.9977C18.6169 23.9731 18.5577 23.9627 18.4988 23.9674C18.4399 23.9722 18.3831 23.9919 18.334 24.0248C18.2849 24.0577 18.245 24.1026 18.2182 24.1553C18.1913 24.208 18.1784 24.2666 18.1806 24.3257L18.2222 25.5102C18.1452 25.5712 18.0692 25.6337 17.9944 25.6975L16.8413 25.425C16.7838 25.4116 16.7239 25.413 16.6671 25.4292C16.6103 25.4454 16.5586 25.4758 16.5168 25.5176C16.4751 25.5593 16.4447 25.6111 16.4285 25.6678C16.4123 25.7246 16.4108 25.7846 16.4242 25.8421L16.6955 26.9952C16.6327 27.0702 16.57 27.1461 16.5092 27.222L15.3247 27.1805C15.2657 27.1782 15.207 27.1912 15.1543 27.218C15.1017 27.2449 15.0567 27.2847 15.0239 27.3339C14.991 27.383 14.9712 27.4397 14.9665 27.4987C14.9617 27.5576 14.9721 27.6167 14.9967 27.6705L15.4877 28.7466C15.4394 28.8332 15.3925 28.9206 15.347 29.0088L14.1808 29.1982C14.1228 29.2081 14.0682 29.2325 14.0222 29.2692C13.9761 29.306 13.9401 29.3538 13.9176 29.4082C13.895 29.4626 13.8866 29.5218 13.8932 29.5803C13.8997 29.6388 13.921 29.6947 13.955 29.7428L14.6454 30.7015C14.6154 30.7963 14.5864 30.8915 14.5584 30.987L13.4519 31.401C13.3969 31.422 13.3481 31.4566 13.3101 31.5016C13.2721 31.5465 13.2461 31.6004 13.2346 31.6582C13.2231 31.7159 13.2263 31.7756 13.2442 31.8318C13.262 31.8879 13.2937 31.9386 13.3364 31.9791L14.202 32.7861C14.1911 32.8838 14.1816 32.9816 14.1737 33.0796L13.1664 33.7032C13.1157 33.7338 13.0738 33.7771 13.0447 33.8287C13.0155 33.8803 13.0002 33.9385 13.0002 33.9978C13.0002 34.0571 13.0155 34.1153 13.0447 34.1669C13.0738 34.2185 13.1157 34.2618 13.1664 34.2924L14.1737 34.916C14.1817 35.0142 14.1919 35.1124 14.202 35.2096L13.3364 36.0175C13.2932 36.0578 13.261 36.1084 13.2428 36.1646C13.2247 36.2209 13.2213 36.2808 13.2328 36.3387C13.2444 36.3967 13.2706 36.4507 13.309 36.4956C13.3473 36.5406 13.3965 36.575 13.4519 36.5955L14.5584 37.0096C14.5857 37.1058 14.6151 37.201 14.6454 37.2951L13.955 38.2538C13.9201 38.3017 13.8981 38.3578 13.8911 38.4167C13.8841 38.4755 13.8924 38.5352 13.9152 38.5899C13.938 38.6447 13.9745 38.6926 14.0212 38.7291C14.0679 38.7657 14.1232 38.7896 14.1818 38.7985L15.348 38.9878C15.3936 39.0758 15.4402 39.1629 15.4888 39.25L14.9978 40.3262C14.9732 40.38 14.9628 40.4391 14.9676 40.498C14.9723 40.557 14.9921 40.6137 15.025 40.6628C15.0578 40.712 15.1028 40.7518 15.1554 40.7787C15.2081 40.8055 15.2668 40.8185 15.3258 40.8162L16.5092 40.7747C16.571 40.8516 16.6327 40.9275 16.6965 41.0024L16.4252 42.1565C16.4117 42.214 16.4131 42.2739 16.4293 42.3307C16.4455 42.3875 16.4759 42.4392 16.5177 42.4809C16.5595 42.5226 16.6113 42.5529 16.6681 42.569C16.7249 42.585 16.7849 42.5863 16.8423 42.5726L17.9953 42.3013C18.0703 42.3651 18.1463 42.4268 18.2232 42.4876L18.1817 43.6721C18.1791 43.7313 18.1918 43.7901 18.2185 43.843C18.2453 43.8958 18.2853 43.9409 18.3345 43.9738C18.3838 44.0067 18.4407 44.0263 18.4998 44.0307C18.5589 44.0351 18.6181 44.0243 18.6717 43.9991L19.7478 43.5091C19.8348 43.5577 19.9219 43.6042 20.01 43.6498L20.2003 44.816C20.2101 44.8742 20.2344 44.9289 20.2711 44.9751C20.3078 45.0212 20.3555 45.0574 20.41 45.08C20.4644 45.1027 20.5237 45.1112 20.5823 45.1046C20.6409 45.0981 20.6969 45.0769 20.745 45.0428L21.7037 44.3524C21.7984 44.3829 21.8936 44.4119 21.9892 44.4394L22.4032 45.546C22.4236 45.6016 22.4578 45.651 22.5028 45.6896C22.5477 45.7281 22.6018 45.7544 22.6599 45.766C22.7179 45.7776 22.778 45.7741 22.8343 45.7558C22.8906 45.7374 22.9412 45.7049 22.9813 45.6614L23.7892 44.7958C23.8864 44.8069 23.9846 44.8161 24.0828 44.8252L24.7064 45.8325C24.7376 45.8825 24.781 45.9238 24.8326 45.9524C24.8841 45.981 24.9421 45.996 25.001 45.996C25.06 45.996 25.118 45.981 25.1695 45.9524C25.221 45.9238 25.2645 45.8825 25.2956 45.8325L25.9192 44.8252C26.0174 44.8161 26.1156 44.8069 26.2128 44.7958L27.0197 45.6614C27.0603 45.7041 27.1109 45.7358 27.1671 45.7536C27.2232 45.7714 27.2829 45.7747 27.3406 45.7632C27.3983 45.7517 27.4522 45.7257 27.4971 45.6877C27.5421 45.6497 27.5767 45.601 27.5977 45.546L28.0118 44.4394C28.1075 44.4121 28.2027 44.3831 28.2973 44.3524L29.256 45.0428C29.3039 45.0777 29.36 45.0998 29.4189 45.1067C29.4778 45.1137 29.5375 45.1054 29.5922 45.0826C29.6469 45.0598 29.6949 45.0233 29.7314 44.9766C29.7679 44.9299 29.7918 44.8746 29.8007 44.816L29.991 43.6498C30.079 43.6042 30.1661 43.5567 30.2532 43.5091L31.3294 43.9991C31.3831 44.0234 31.4421 44.0336 31.5009 44.0287C31.5596 44.0239 31.6161 44.0042 31.6651 43.9715C31.7141 43.9388 31.754 43.8941 31.781 43.8418C31.808 43.7894 31.8212 43.731 31.8194 43.6721L31.7779 42.4876C31.8549 42.4272 31.9304 42.365 32.0046 42.3013L33.1577 42.5726C33.2151 42.586 33.275 42.5845 33.3316 42.5683C33.3883 42.5522 33.4399 42.5219 33.4817 42.4803C33.5234 42.4387 33.5538 42.3871 33.5701 42.3305C33.5864 42.2739 33.5881 42.214 33.5748 42.1566L33.3035 41.0024C33.3663 40.9275 33.429 40.8516 33.4898 40.7746L34.6743 40.8161C34.7336 40.8189 34.7926 40.8064 34.8456 40.7797C34.8986 40.753 34.9438 40.7131 34.9768 40.6638C35.0098 40.6145 35.0295 40.5575 35.0339 40.4983C35.0384 40.4391 35.0275 40.3798 35.0023 40.3261L34.5123 39.2501C34.5598 39.1629 34.6074 39.0759 34.653 38.9878L35.8192 38.7985C35.8773 38.7886 35.9319 38.7642 35.978 38.7275C36.024 38.6907 36.06 38.6429 36.0826 38.5885C36.1051 38.5341 36.1135 38.4749 36.107 38.4163C36.1004 38.3578 36.0791 38.3019 36.045 38.2538L35.3546 37.2951L35.4416 37.0096L36.5482 36.5956C36.6037 36.5751 36.6529 36.5407 36.6912 36.4957C36.7296 36.4507 36.7558 36.3967 36.7674 36.3388C36.7789 36.2808 36.7755 36.2209 36.7573 36.1646C36.7392 36.1084 36.7069 36.0577 36.6636 36.0175L35.798 35.2096C35.8081 35.1124 35.8182 35.0142 35.8263 34.916L36.8336 34.2924C36.8844 34.2618 36.9263 34.2185 36.9554 34.1669C36.9845 34.1153 36.9998 34.0571 36.9998 33.9978C36.9998 33.9385 36.9845 33.8803 36.9554 33.8287C36.9263 33.7771 36.8844 33.7338 36.8336 33.7032L36.8346 33.7033ZM30.0933 42.0584C29.9091 42.0179 29.7484 41.9062 29.6463 41.7476C29.5442 41.5889 29.5091 41.3964 29.5485 41.2119C29.588 41.0275 29.6988 40.8661 29.8569 40.7632C30.0149 40.6602 30.2073 40.624 30.3919 40.6624C30.4849 40.6808 30.5733 40.7174 30.6519 40.7703C30.7305 40.8232 30.7978 40.8912 30.8499 40.9703C30.902 41.0494 30.9379 41.1382 30.9553 41.2313C30.9728 41.3244 30.9715 41.4201 30.9516 41.5127C30.9317 41.6054 30.8936 41.6931 30.8395 41.7709C30.7853 41.8486 30.7162 41.9148 30.6363 41.9656C30.5563 42.0164 30.467 42.0508 30.3736 42.0667C30.2802 42.0826 30.1845 42.0798 30.0922 42.0584H30.0933ZM29.7511 39.7442C29.6676 39.7262 29.5814 39.7249 29.4974 39.7403C29.4134 39.7557 29.3333 39.7876 29.2616 39.834C29.1899 39.8805 29.1281 39.9406 29.0797 40.011C29.0314 40.0814 28.9973 40.1606 28.9796 40.2442L28.6223 41.9127C27.5188 42.4137 26.2938 42.6922 25.003 42.6922C23.7267 42.694 22.4654 42.4162 21.3079 41.8782L20.9505 40.2098C20.9329 40.1263 20.8988 40.0471 20.8504 39.9767C20.8021 39.9064 20.7402 39.8463 20.6686 39.8C20.5969 39.7536 20.5167 39.7218 20.4327 39.7065C20.3488 39.6912 20.2626 39.6927 20.1791 39.7108L18.7061 40.0266C18.4324 39.7448 18.1781 39.4447 17.9448 39.1286H25.1124C25.1934 39.1286 25.248 39.1145 25.248 39.0406V36.5046C25.248 36.4306 25.1944 36.4165 25.1124 36.4165H23.0158V34.8088H25.2835C25.49 34.8088 26.39 34.8675 26.6775 36.0176C26.7676 36.3709 26.965 37.522 27.1007 37.8905C27.2353 38.3035 27.784 39.1286 28.3692 39.1286H31.9408C31.9843 39.128 32.0277 39.1236 32.0704 39.1155C31.8228 39.4519 31.5515 39.7703 31.2585 40.0681L29.7511 39.7442ZM19.8369 42.024C19.7446 42.0454 19.649 42.0482 19.5556 42.0323C19.4622 42.0164 19.3729 41.982 19.2929 41.9312C19.2129 41.8804 19.1439 41.8142 19.0897 41.7365C19.0356 41.6587 18.9974 41.571 18.9776 41.4783C18.9577 41.3857 18.9564 41.29 18.9739 41.1969C18.9913 41.1038 19.0272 41.015 19.0792 40.9359C19.1313 40.8568 19.1987 40.7888 19.2773 40.7359C19.3559 40.683 19.4443 40.6464 19.5372 40.628C19.721 40.5917 19.9117 40.6291 20.0682 40.7321C20.2247 40.835 20.3344 40.9954 20.3737 41.1786C20.4131 41.3617 20.3788 41.553 20.2784 41.7112C20.178 41.8693 20.0194 41.9817 19.8369 42.024ZM17.1177 30.9972C17.159 31.0833 17.1825 31.1768 17.187 31.2721C17.1915 31.3675 17.1768 31.4628 17.1438 31.5523C17.1108 31.6419 17.0601 31.7239 16.9949 31.7936C16.9296 31.8633 16.851 31.9191 16.7638 31.9578C16.6765 31.9966 16.5824 32.0174 16.487 32.0192C16.3915 32.0209 16.2967 32.0034 16.2081 31.9679C16.1195 31.9323 16.039 31.8793 15.9713 31.812C15.9035 31.7448 15.85 31.6646 15.8137 31.5763C15.7435 31.4045 15.743 31.2121 15.8122 31.0399C15.8815 30.8677 16.0151 30.7293 16.1848 30.654C16.3544 30.5787 16.5467 30.5724 16.7209 30.6365C16.895 30.7006 17.0374 30.8299 17.1177 30.9972ZM16.2825 32.9785L17.8172 32.2961C17.8953 32.2614 17.9658 32.2117 18.0246 32.1498C18.0835 32.0879 18.1295 32.015 18.1602 31.9352C18.1908 31.8555 18.2055 31.7705 18.2032 31.6851C18.201 31.5997 18.182 31.5156 18.1472 31.4376L17.8314 30.7229H19.0746V36.3254H16.5669C16.2577 35.2381 16.1615 34.1012 16.2835 32.9774L16.2825 32.9785ZM23.0168 32.4348V30.7836H25.9769C26.1299 30.7836 27.0561 30.9608 27.0561 31.6533C27.0561 32.2283 26.3454 32.4348 25.7613 32.4348H23.0168ZM33.7742 33.921C33.7742 34.1397 33.7662 34.3573 33.7499 34.572H32.8499C32.7599 34.572 32.7234 34.6306 32.7234 34.7197V35.1327C32.7234 36.1057 32.1747 36.3173 31.6938 36.3709C31.2362 36.4226 30.729 36.1796 30.6663 35.8992C30.3959 34.3806 29.9465 34.0556 29.2358 33.4958C30.1175 32.9359 31.0348 32.1098 31.0348 31.0043C31.0348 29.8107 30.2158 29.0585 29.6579 28.689C28.8754 28.1727 28.0088 28.0695 27.7749 28.0695H18.4682C19.7545 26.6313 21.4793 25.6576 23.3752 25.2996L24.4726 26.4506C24.5314 26.5125 24.6019 26.5621 24.6799 26.5967C24.7579 26.6312 24.842 26.65 24.9273 26.652C25.0126 26.654 25.0975 26.6391 25.177 26.6082C25.2566 26.5773 25.3292 26.531 25.3908 26.4719L26.6178 25.2976C27.8689 25.5322 29.054 26.0362 30.0908 26.7746C31.1277 27.5131 31.9914 28.4682 32.6222 29.5738L31.7819 31.472C31.7123 31.6297 31.7079 31.8085 31.7698 31.9693C31.8316 32.1302 31.9546 32.2601 32.1119 32.3305L33.7297 33.0493C33.758 33.3368 33.7722 33.6263 33.7722 33.921H33.7742ZM24.4736 24.3217C24.6104 24.1912 24.7935 24.1204 24.9825 24.1249C25.0761 24.1271 25.1683 24.1477 25.2539 24.1856C25.3395 24.2234 25.4168 24.2778 25.4814 24.3455C25.5461 24.4132 25.5967 24.493 25.6305 24.5803C25.6642 24.6676 25.6805 24.7607 25.6783 24.8543C25.6761 24.9479 25.6554 25.0401 25.6176 25.1258C25.5797 25.2114 25.5254 25.2887 25.4576 25.3533C25.319 25.473 25.1397 25.5348 24.9567 25.5259C24.7738 25.5171 24.6012 25.4382 24.4748 25.3057C24.3484 25.1731 24.2778 24.9971 24.2776 24.8139C24.2773 24.6308 24.3475 24.4545 24.4736 24.3217ZM32.8125 31.0317C32.8503 30.9461 32.9046 30.8688 32.9723 30.8042C33.0399 30.7396 33.1197 30.689 33.207 30.6553C33.2943 30.6217 33.3874 30.6056 33.4809 30.6079C33.5744 30.6103 33.6666 30.6311 33.752 30.6692C33.8812 30.7262 33.9906 30.8203 34.0663 30.9395C34.1421 31.0587 34.1807 31.1977 34.1774 31.3388C34.1741 31.48 34.129 31.617 34.0478 31.7326C33.9666 31.8481 33.8529 31.9369 33.7212 31.9879C33.5895 32.0388 33.4456 32.0495 33.3078 32.0186C33.17 31.9877 33.0445 31.9166 32.9471 31.8144C32.8497 31.7121 32.7848 31.5832 32.7607 31.4441C32.7366 31.305 32.7543 31.1618 32.8115 31.0327L32.8125 31.0317Z" fill="#F04900"/>
</g>
<g clip-path="url(#clip1_92_40)">
<path d="M87.1692 38.6475C87.1692 38.6475 86.0929 39.302 87.9173 39.4893C90.1136 39.7693 91.2834 39.7229 93.7142 39.2556C94.2027 39.5548 94.7194 39.8054 95.2568 40.0038C89.7881 42.3418 82.8677 39.8638 87.1692 38.6475ZM86.4692 35.6086C86.4692 35.6086 85.3002 36.4968 87.1237 36.6849C89.5081 36.9185 91.3779 36.9649 94.6049 36.3113C94.9188 36.6295 95.303 36.8696 95.7267 37.0121C89.1344 38.9756 81.7477 37.1985 86.4692 35.6086ZM99.3728 40.9374C99.3728 40.9374 100.167 41.5919 98.4847 42.1064C95.3522 43.0426 85.3474 43.3226 82.5422 42.1064C81.5604 41.6864 83.4303 41.0783 84.0297 40.9846C84.6378 40.8446 84.9659 40.8446 84.9659 40.8446C83.8897 40.0965 77.8128 42.3873 81.8807 43.0409C93.0544 44.8644 102.265 42.2464 99.3658 40.9374H99.3728ZM87.6749 32.4289C87.6749 32.4289 82.5789 33.6451 85.8514 34.0651C87.2541 34.2524 90.0121 34.2051 92.5837 34.0188C94.6872 33.8315 96.7924 33.4588 96.7924 33.4588C96.7924 33.4588 96.0443 33.786 95.5298 34.1133C90.3411 35.4695 80.3818 34.8614 83.2343 33.4588C85.6651 32.2898 87.6758 32.4306 87.6758 32.4306L87.6749 32.4289ZM96.7924 37.5249C102.028 34.8124 99.5977 32.1961 97.9142 32.5225C97.4942 32.6161 97.3061 32.7098 97.3061 32.7098C97.3061 32.7098 97.4461 32.4298 97.7733 32.3361C101.093 31.1671 103.711 35.8423 96.6971 37.6649C96.6971 37.6649 96.7434 37.6185 96.7907 37.5249H96.7924ZM88.1912 44.9116C93.2399 45.2389 100.955 44.7244 101.141 42.3391C101.141 42.3391 100.768 43.2754 96.9806 43.9754C92.6791 44.7699 87.3494 44.6754 84.2169 44.1626C84.2169 44.1626 84.8714 44.7235 88.1912 44.9116Z" fill="#4E7896"/>
<path d="M93.6215 17.0009C93.6215 17.0009 96.5203 19.9461 90.8635 24.3876C86.3283 27.9874 89.8353 30.0445 90.8635 32.3825C88.1982 29.9981 86.282 27.8938 87.591 25.9311C89.5072 23.0314 94.7905 21.6375 93.6215 17.0009ZM92.134 30.419C93.4902 31.9616 91.7603 33.3643 91.7603 33.3643C91.7603 33.3643 95.2201 31.588 93.6302 29.39C92.1812 27.2865 91.0577 26.2575 97.1363 22.7514C97.1363 22.7514 87.5525 25.1358 92.134 30.419Z" fill="#F58219"/>
</g>
<path d="M58 42C60.1217 42 62.1566 41.1571 63.6569 39.6569C65.1571 38.1566 66 36.1217 66 34C66 31.8783 65.1571 29.8434 63.6569 28.3431C62.1566 26.8429 60.1217 26 58 26C55.8783 26 53.8434 26.8429 52.3431 28.3431C50.8429 29.8434 50 31.8783 50 34C50 36.1217 50.8429 38.1566 52.3431 39.6569C53.8434 41.1571 55.8783 42 58 42Z" stroke="#585858" stroke-width="2" stroke-linecap="round" stroke-linejoin="round"/>
<path d="M58 36C58.5304 36 59.0391 35.7893 59.4142 35.4142C59.7893 35.0391 60 34.5304 60 34C60 33.4696 59.7893 32.9609 59.4142 32.5858C59.0391 32.2107 58.5304 32 58 32C57.4696 32 56.9609 32.2107 56.5858 32.5858C56.2107 32.9609 56 33.4696 56 34C56 34.5304 56.2107 35.0391 56.5858 35.4142C56.9609 35.7893 57.4696 36 58 36Z" stroke="#585858" stroke-width="2" stroke-linecap="round" stroke-linejoin="round"/>
<path d="M58 24V26" stroke="#585858" stroke-width="2" stroke-linecap="round" stroke-linejoin="round"/>
<path d="M58 44V42" stroke="#585858" stroke-width="2" stroke-linecap="round" stroke-linejoin="round"/>
<path d="M63 42.66L62 40.93" stroke="#585858" stroke-width="2" stroke-linecap="round" stroke-linejoin="round"/>
<path d="M57 32.27L53 25.34" stroke="#585858" stroke-width="2" stroke-linecap="round" stroke-linejoin="round"/>
<path d="M66.6599 39L64.9299 38" stroke="#585858" stroke-width="2" stroke-linecap="round" stroke-linejoin="round"/>
<path d="M49.3401 29L51.0701 30" stroke="#585858" stroke-width="2" stroke-linecap="round" stroke-linejoin="round"/>
<path d="M60 34H68" stroke="#585858" stroke-width="2" stroke-linecap="round" stroke-linejoin="round"/>
<path d="M48 34H50" stroke="#585858" stroke-width="2" stroke-linecap="round" stroke-linejoin="round"/>
<path d="M66.6599 29L64.9299 30" stroke="#585858" stroke-width="2" stroke-linecap="round" stroke-linejoin="round"/>
<path d="M49.3401 39L51.0701 38" stroke="#585858" stroke-width="2" stroke-linecap="round" stroke-linejoin="round"/>
<path d="M63 25.34L62 27.07" stroke="#585858" stroke-width="2" stroke-linecap="round" stroke-linejoin="round"/>
<path d="M57 35.73L53 42.66" stroke="#585858" stroke-width="2" stroke-linecap="round" stroke-linejoin="round"/>
<defs>
<clipPath id="clip0_92_40">
<rect width="24" height="24" fill="white" transform="translate(13 22)"/>
</clipPath>
<clipPath id="clip1_92_40">
<rect width="28" height="28" fill="white" transform="translate(77 17)"/>
</clipPath>
</defs>
</svg>
